<?xml version="1.0" encoding="UTF-8"?>
<svg version="1.1" xmlns="http://www.w3.org/2000/svg" width="246" height="246">
<path d="M0 0 C1.33820466 -0.00599604 2.67640588 -0.01280403 4.01460266 -0.02035522 C7.62648356 -0.03791576 11.2382695 -0.04270644 14.85018897 -0.0439868 C17.11425033 -0.04541493 19.37828806 -0.04969702 21.64234352 -0.05498123 C29.562359 -0.07345052 37.48230745 -0.08165598 45.40234375 -0.08007812 C52.74993757 -0.07887844 60.09723684 -0.09995469 67.44475621 -0.13156545 C73.78142365 -0.15784211 80.11799558 -0.16844064 86.45471698 -0.16716731 C90.22668359 -0.16666089 93.99838826 -0.17216413 97.77029991 -0.19352341 C101.3237638 -0.2130986 104.87672108 -0.21290124 108.43020439 -0.19849014 C110.33112972 -0.19545132 112.23205618 -0.21194361 114.13290405 -0.22937012 C132.31132886 -0.09873844 148.03570327 6.76942512 160.8762207 19.47412109 C174.02831827 33.41921278 178.83674318 49.01335758 178.82299805 67.75805664 C178.82899409 69.0962613 178.83580208 70.43446252 178.84335327 71.7726593 C178.86091381 75.3845402 178.86570449 78.99632614 178.86698484 82.60824561 C178.86841297 84.87230697 178.87269507 87.1363447 178.87797928 89.40040016 C178.89644856 97.32041564 178.90465403 105.24036409 178.90307617 113.16040039 C178.90187648 120.50799421 178.92295274 127.85529348 178.9545635 135.20281285 C178.98084015 141.53948029 178.99143869 147.87605222 178.99016535 154.21277362 C178.98965894 157.98474023 178.99516218 161.7564449 179.01652145 165.52835655 C179.03609665 169.08182044 179.03589928 172.63477772 179.02148819 176.18826103 C179.01844937 178.08918636 179.03494166 179.99011282 179.05236816 181.89096069 C178.92173649 200.0693855 172.05357293 215.79375991 159.34887695 228.63427734 C145.40378527 241.78637491 129.80964047 246.59479982 111.06494141 246.58105469 C109.72673675 246.58705073 108.38853553 246.59385872 107.05033875 246.60140991 C103.43845785 246.61897045 99.82667191 246.62376113 96.21475244 246.62504148 C93.95069107 246.62646961 91.68665334 246.63075171 89.42259789 246.63603592 C81.50258241 246.65450521 73.58263395 246.66271067 65.66259766 246.66113281 C58.31500384 246.65993312 50.96770457 246.68100938 43.6201852 246.71262014 C37.28351776 246.73889679 30.94694583 246.74949533 24.61022443 246.74822199 C20.83825781 246.74771558 17.06655315 246.75321882 13.29464149 246.77457809 C9.7411776 246.79415329 6.18822033 246.79395592 2.63473701 246.77954483 C0.73381169 246.77650601 -1.16711477 246.7929983 -3.06796265 246.8104248 C-21.24638746 246.67979313 -36.97076186 239.81162957 -49.8112793 227.10693359 C-62.96337686 213.16184191 -67.77180178 197.56769711 -67.75805664 178.82299805 C-67.76405268 177.48479339 -67.77086067 176.14659217 -67.77841187 174.80839539 C-67.7959724 171.19651449 -67.80076308 167.58472855 -67.80204344 163.97280908 C-67.80347157 161.70874771 -67.80775366 159.44470998 -67.81303787 157.18065453 C-67.83150716 149.26063905 -67.83971262 141.34069059 -67.83813477 133.4206543 C-67.83693508 126.07306048 -67.85801133 118.72576121 -67.88962209 111.37824184 C-67.91589875 105.0415744 -67.92649728 98.70500247 -67.92522395 92.36828107 C-67.92471753 88.59631445 -67.93022077 84.82460979 -67.95158005 81.05269814 C-67.97115524 77.49923424 -67.97095788 73.94627697 -67.95654678 70.39279366 C-67.95350796 68.49186833 -67.97000025 66.59094187 -67.98742676 64.69009399 C-67.85679508 46.51166919 -60.98863153 30.78729478 -48.28393555 17.94677734 C-34.33884387 4.79467978 -18.74469906 -0.01374514 0 0 Z " fill="#010101" transform="translate(67.467529296875,-0.29052734375)"/>
<path d="M0 0 C1.33820466 -0.00599604 2.67640588 -0.01280403 4.01460266 -0.02035522 C7.62648356 -0.03791576 11.2382695 -0.04270644 14.85018897 -0.0439868 C17.11425033 -0.04541493 19.37828806 -0.04969702 21.64234352 -0.05498123 C29.562359 -0.07345052 37.48230745 -0.08165598 45.40234375 -0.08007812 C52.74993757 -0.07887844 60.09723684 -0.09995469 67.44475621 -0.13156545 C73.78142365 -0.15784211 80.11799558 -0.16844064 86.45471698 -0.16716731 C90.22668359 -0.16666089 93.99838826 -0.17216413 97.77029991 -0.19352341 C101.3237638 -0.2130986 104.87672108 -0.21290124 108.43020439 -0.19849014 C110.33112972 -0.19545132 112.23205618 -0.21194361 114.13290405 -0.22937012 C132.31132886 -0.09873844 148.03570327 6.76942512 160.8762207 19.47412109 C174.02831827 33.41921278 178.83674318 49.01335758 178.82299805 67.75805664 C178.82899409 69.0962613 178.83580208 70.43446252 178.84335327 71.7726593 C178.86091381 75.3845402 178.86570449 78.99632614 178.86698484 82.60824561 C178.86841297 84.87230697 178.87269507 87.1363447 178.87797928 89.40040016 C178.89644856 97.32041564 178.90465403 105.24036409 178.90307617 113.16040039 C178.90187648 120.50799421 178.92295274 127.85529348 178.9545635 135.20281285 C178.98084015 141.53948029 178.99143869 147.87605222 178.99016535 154.21277362 C178.98965894 157.98474023 178.99516218 161.7564449 179.01652145 165.52835655 C179.03609665 169.08182044 179.03589928 172.63477772 179.02148819 176.18826103 C179.01844937 178.08918636 179.03494166 179.99011282 179.05236816 181.89096069 C178.92173649 200.0693855 172.05357293 215.79375991 159.34887695 228.63427734 C145.40378527 241.78637491 129.80964047 246.59479982 111.06494141 246.58105469 C109.72673675 246.58705073 108.38853553 246.59385872 107.05033875 246.60140991 C103.43845785 246.61897045 99.82667191 246.62376113 96.21475244 246.62504148 C93.95069107 246.62646961 91.68665334 246.63075171 89.42259789 246.63603592 C81.50258241 246.65450521 73.58263395 246.66271067 65.66259766 246.66113281 C58.31500384 246.65993312 50.96770457 246.68100938 43.6201852 246.71262014 C37.28351776 246.73889679 30.94694583 246.74949533 24.61022443 246.74822199 C20.83825781 246.74771558 17.06655315 246.75321882 13.29464149 246.77457809 C9.7411776 246.79415329 6.18822033 246.79395592 2.63473701 246.77954483 C0.73381169 246.77650601 -1.16711477 246.7929983 -3.06796265 246.8104248 C-21.24638746 246.67979313 -36.97076186 239.81162957 -49.8112793 227.10693359 C-62.96337686 213.16184191 -67.77180178 197.56769711 -67.75805664 178.82299805 C-67.76405268 177.48479339 -67.77086067 176.14659217 -67.77841187 174.80839539 C-67.7959724 171.19651449 -67.80076308 167.58472855 -67.80204344 163.97280908 C-67.80347157 161.70874771 -67.80775366 159.44470998 -67.81303787 157.18065453 C-67.83150716 149.26063905 -67.83971262 141.34069059 -67.83813477 133.4206543 C-67.83693508 126.07306048 -67.85801133 118.72576121 -67.88962209 111.37824184 C-67.91589875 105.0415744 -67.92649728 98.70500247 -67.92522395 92.36828107 C-67.92471753 88.59631445 -67.93022077 84.82460979 -67.95158005 81.05269814 C-67.97115524 77.49923424 -67.97095788 73.94627697 -67.95654678 70.39279366 C-67.95350796 68.49186833 -67.97000025 66.59094187 -67.98742676 64.69009399 C-67.85679508 46.51166919 -60.98863153 30.78729478 -48.28393555 17.94677734 C-34.33884387 4.79467978 -18.74469906 -0.01374514 0 0 Z M-40.4675293 22.29052734 C-41.15331055 22.83322266 -41.8390918 23.37591797 -42.5456543 23.93505859 C-50.76311329 31.24563585 -56.07668453 42.73919588 -58.4675293 53.29052734 C-58.63910364 53.881571 -58.81067799 54.47261465 -58.98745155 55.08156872 C-59.55170848 57.67785696 -59.60596361 60.06194863 -59.62142944 62.71980286 C-59.63002991 63.8227066 -59.63863037 64.92561035 -59.64749146 66.06193542 C-59.6517514 67.26763687 -59.65601135 68.47333832 -59.66040039 69.71557617 C-59.66857788 70.98929077 -59.67675537 72.26300537 -59.68518066 73.57531738 C-59.71135554 77.7993764 -59.72671364 82.02344503 -59.7409668 86.24755859 C-59.7463302 87.70709424 -59.75170772 89.16662984 -59.75709915 90.62616539 C-59.77873002 96.70577163 -59.79745938 102.78537529 -59.80872154 108.86501026 C-59.82491033 117.54455288 -59.85796116 126.22364427 -59.91512239 134.90301687 C-59.95402938 141.02217707 -59.97337914 147.14121771 -59.97864211 153.26049823 C-59.9822702 156.90579776 -59.9940142 160.55061562 -60.02674484 164.1957798 C-60.22522428 187.4352435 -58.47562431 205.28039033 -41.95581055 222.96630859 C-29.23496279 234.84841914 -14.40163662 238.58745129 2.52514648 238.59692383 C3.79959122 238.60524734 5.07403595 238.61357086 6.38710022 238.62214661 C9.86061322 238.64394709 13.33403828 238.65287122 16.80761194 238.65797305 C18.98591663 238.66163477 21.16419891 238.66788416 23.34249496 238.67497444 C30.96540065 238.69942176 38.58823878 238.71250995 46.21118164 238.71606445 C53.27821187 238.7196929 60.34480604 238.74955044 67.41170323 238.79146904 C73.50974801 238.82635177 79.60764956 238.841616 85.70579326 238.84231049 C89.33422846 238.84309742 92.96221882 238.85156205 96.59054947 238.88030815 C119.75095716 239.05253802 137.59487304 237.25461009 155.20825195 220.77490234 C166.89405817 208.2838557 170.82957764 193.05533187 170.83886719 176.42724609 C170.85135246 174.51820747 170.85135246 174.51820747 170.86408997 172.57060242 C170.88591972 169.0969631 170.89481906 165.62341175 170.89991641 162.14971161 C170.90357586 159.97123698 170.90982425 157.79278483 170.9169178 155.61431885 C170.94137925 147.99026493 170.95445553 140.36627864 170.95800781 132.7421875 C170.96163316 125.67576571 170.99146467 118.60978087 171.0334124 111.54349232 C171.06831638 105.44630133 171.08355975 99.34925363 171.08425385 93.25196362 C171.08504033 89.62404042 171.09348297 85.99656236 171.12225151 82.3687439 C171.29072714 59.69937298 170.16273821 42.14547779 154.18481445 24.73193359 C141.11868623 12.13321158 125.96295691 7.82635384 108.21508789 7.87060547 C106.94181137 7.86213593 105.66853485 7.85366638 104.35667419 7.84494019 C100.89974939 7.82293841 97.4430644 7.81978272 93.98607922 7.8216877 C91.08161558 7.82180842 88.1772009 7.81320291 85.27275109 7.80491018 C78.40925769 7.7857519 71.54588585 7.78276408 64.68237305 7.78955078 C57.64538517 7.7961821 50.6089227 7.77334678 43.57204127 7.73623705 C37.49173915 7.70535735 31.41160442 7.69419973 25.33122563 7.69807386 C21.71679762 7.70012306 18.10277861 7.69495093 14.48842621 7.67018127 C-6.86101216 7.53556835 -23.3189565 8.41180953 -40.4675293 22.29052734 Z " fill="#FDFDFD" transform="translate(67.467529296875,-0.29052734375)"/>
<path d="M0 0 C4.62 0 9.24 0 14 0 C14.00410889 2.22484131 14.00821777 4.44968262 14.01245117 6.74194336 C14.02969965 14.11816345 14.0742861 21.49403947 14.13209057 28.87004757 C14.16628495 33.33929505 14.19145873 37.80820344 14.19555664 42.27758789 C14.1998559 46.59621098 14.22845218 50.91407012 14.27343178 55.2324543 C14.28635507 56.87450258 14.29073288 58.51664253 14.28615379 60.15873528 C14.26663843 69.28752436 14.56982111 76.30061136 20 84 C20.33 84.99 20.66 85.98 21 87 C22.83704878 88.11942582 22.83704878 88.11942582 25 89 C25.97259766 89.51240234 25.97259766 89.51240234 26.96484375 90.03515625 C33.89503945 93.64434728 40.74092517 95.51672378 48.4921875 93.28125 C57.12723315 90.02670392 63.04658664 86.4925176 67 78 C68.62492904 73.10586685 69.26378654 68.83595838 69.31884766 63.68774414 C69.32889328 62.99421844 69.3389389 62.30069275 69.34928894 61.58615112 C69.3799055 59.31916042 69.39709529 57.05228659 69.4140625 54.78515625 C69.43279154 53.20331329 69.45236623 51.62148013 69.4727478 50.03965759 C69.52389177 45.89531255 69.56361189 41.75093517 69.60089111 37.60644531 C69.6410425 33.3697115 69.69208383 29.13311011 69.7421875 24.89648438 C69.83873663 16.5977404 69.92220039 8.29894094 70 0 C74.29 0 78.58 0 83 0 C83.09313319 9.44108648 83.16398287 18.88201214 83.20724869 28.32345963 C83.22802572 32.70864466 83.25615986 37.09351287 83.30175781 41.47851562 C83.34557192 45.71904312 83.36921121 49.959268 83.37950897 54.20000458 C83.38683713 55.80896511 83.40114529 57.41791116 83.42292023 59.02674103 C83.60440824 73.00589287 81.71603575 85.23963028 72 96 C62.05175888 104.98272725 50.3868413 108.01571787 37.26171875 107.44921875 C27.66514777 106.67428642 17.7835111 102.98123676 11 96 C3.04890257 86.42327334 -0.13535492 77.15230444 -0.11352539 64.70947266 C-0.11367142 64.00633942 -0.11381744 63.30320618 -0.1139679 62.57876587 C-0.11327584 60.27383245 -0.1055168 57.96898166 -0.09765625 55.6640625 C-0.09578956 54.05838058 -0.09436684 52.45269808 -0.09336853 50.84701538 C-0.08956315 46.63517668 -0.07974988 42.42337284 -0.06866455 38.21154785 C-0.05840777 33.90796378 -0.05386179 29.60437404 -0.04882812 25.30078125 C-0.03812573 16.86716977 -0.02054507 8.43359325 0 0 Z " fill="#F5F5F5" transform="translate(64,70)"/>
<path d="M0 0 C3.96 0 7.92 0 12 0 C12 34.32 12 68.64 12 104 C8.04 104 4.08 104 0 104 C0 69.68 0 35.36 0 0 Z " fill="#FEFEFE" transform="translate(169,70)"/>
</svg>
